solid OpenSCAD_Model
  facet normal -0.805844 -0.366292 -0.465237
    outer loop
      vertex -2.06893 0.2 0.0165068
      vertex -2.3094 0.75 5.72205e-07
      vertex -2.07846 0.241931 5.72205e-07
    endloop
  endfacet
  facet normal -0.805837 -0.36629 -0.46525
    outer loop
      vertex -2.3094 0.75 5.72205e-07
      vertex -2.06893 0.2 0.0165068
      vertex -4.38786 0.75 3.6
    endloop
  endfacet
  facet normal 0 -1 0
    outer loop
      vertex -1.94245 0.2 0.5
      vertex -2.06893 0.2 7.18349
      vertex -4.13786 0.2 3.6
    endloop
  endfacet
  facet normal 0 -1 0
    outer loop
      vertex -2.06893 0.2 7.18349
      vertex -1.94245 0.2 0.5
      vertex 2.06893 0.2 7.18349
    endloop
  endfacet
  facet normal 0 -1 0
    outer loop
      vertex 1.94245 0.2 0.5
      vertex 2.06893 0.2 7.18349
      vertex -1.94245 0.2 0.5
    endloop
  endfacet
  facet normal 0 -1 0
    outer loop
      vertex -2.06893 0.2 0.0165068
      vertex -1.94245 0.2 0.5
      vertex -4.13786 0.2 3.6
    endloop
  endfacet
  facet normal 0 -1 -0
    outer loop
      vertex -1.94245 0.2 0.5
      vertex -2.06893 0.2 0.0165068
      vertex -1.94245 0.2 0.0165068
    endloop
  endfacet
  facet normal 0 -1 -0
    outer loop
      vertex 2.06893 0.2 7.18349
      vertex 1.94245 0.2 0.5
      vertex 4.13786 0.2 3.6
    endloop
  endfacet
  facet normal 0 -1 0
    outer loop
      vertex 2.06893 0.2 0.0165068
      vertex 1.94245 0.2 0.5
      vertex 1.94245 0.2 0.0165068
    endloop
  endfacet
  facet normal 0 -1 0
    outer loop
      vertex 1.94245 0.2 0.5
      vertex 2.06893 0.2 0.0165068
      vertex 4.13786 0.2 3.6
    endloop
  endfacet
  facet normal 0 -0.366293 -0.9305
    outer loop
      vertex 1.94245 0.2 0.0165068
      vertex 2.07846 0.241931 5.72205e-07
      vertex 2.06893 0.2 0.0165068
    endloop
  endfacet
  facet normal -1.66135e-06 -0.366288 -0.930501
    outer loop
      vertex 1.91342 0.219398 0.0088709
      vertex 2.07846 0.241931 5.72205e-07
      vertex 1.94245 0.2 0.0165068
    endloop
  endfacet
  facet normal -0 -0.366299 -0.930497
    outer loop
      vertex 2.07846 0.241931 5.72205e-07
      vertex 1.91342 0.219398 0.0088709
      vertex 1.80013 0.241931 5.72205e-07
    endloop
  endfacet
  facet normal 0 -0.366293 -0.9305
    outer loop
      vertex -2.07846 0.241931 5.72205e-07
      vertex -1.94245 0.2 0.0165068
      vertex -2.06893 0.2 0.0165068
    endloop
  endfacet
  facet normal 1.66135e-06 -0.366288 -0.930501
    outer loop
      vertex -1.94245 0.2 0.0165068
      vertex -2.07846 0.241931 5.72205e-07
      vertex -1.91342 0.219398 0.0088709
    endloop
  endfacet
  facet normal 0 -0.366299 -0.930497
    outer loop
      vertex -1.91342 0.219398 0.0088709
      vertex -2.07846 0.241931 5.72205e-07
      vertex -1.80013 0.241931 5.72205e-07
    endloop
  endfacet
  facet normal 0.805837 0.36629 -0.46525
    outer loop
      vertex 2.3094 49.25 5.72205e-07
      vertex 2.06893 49.8 0.0165068
      vertex 4.38786 49.25 3.6
    endloop
  endfacet
  facet normal 0.80613 0.3664 -0.464657
    outer loop
      vertex 2.06893 49.8 0.0165068
      vertex 2.3094 49.25 5.72205e-07
      vertex 2.07846 49.7581 5.72205e-07
    endloop
  endfacet
  facet normal 0.805837 -0.36629 -0.46525
    outer loop
      vertex 4.13786 0.2 3.6
      vertex 2.06893 0.2 0.0165068
      vertex 4.38786 0.75 3.6
    endloop
  endfacet
  facet normal -0.80613 0.3664 -0.464657
    outer loop
      vertex -2.3094 49.25 5.72205e-07
      vertex -2.06893 49.8 0.0165068
      vertex -2.07846 49.7581 5.72205e-07
    endloop
  endfacet
  facet normal -0.805837 0.36629 -0.46525
    outer loop
      vertex -2.06893 49.8 0.0165068
      vertex -2.3094 49.25 5.72205e-07
      vertex -4.38786 49.25 3.6
    endloop
  endfacet
  facet normal 0.805837 -0.36629 0.465251
    outer loop
      vertex 4.38786 0.75 3.6
      vertex 2.06893 0.2 7.18349
      vertex 4.13786 0.2 3.6
    endloop
  endfacet
  facet normal 0.805837 -0.36629 -0.46525
    outer loop
      vertex 2.06893 0.2 0.0165068
      vertex 2.3094 0.75 5.72205e-07
      vertex 4.38786 0.75 3.6
    endloop
  endfacet
  facet normal 0.805844 -0.366292 -0.465237
    outer loop
      vertex 2.3094 0.75 5.72205e-07
      vertex 2.06893 0.2 0.0165068
      vertex 2.07846 0.241931 5.72205e-07
    endloop
  endfacet
  facet normal -0 0 1
    outer loop
      vertex -2.19393 42 7.4
      vertex 2.19393 8 7.4
      vertex 2.19393 42 7.4
    endloop
  endfacet
  facet normal 0 0 1
    outer loop
      vertex 2.19393 8 7.4
      vertex -2.19393 42 7.4
      vertex -2.19393 8 7.4
    endloop
  endfacet
  facet normal -0 0 1
    outer loop
      vertex -2.19393 49.25 7.4
      vertex 2.19393 45 7.4
      vertex 2.19393 49.25 7.4
    endloop
  endfacet
  facet normal 0 0 1
    outer loop
      vertex 2.19393 45 7.4
      vertex -2.19393 49.25 7.4
      vertex -2.19393 45 7.4
    endloop
  endfacet
  facet normal -0 0 1
    outer loop
      vertex -2.19393 5 7.4
      vertex 2.19393 0.75 7.4
      vertex 2.19393 5 7.4
    endloop
  endfacet
  facet normal 0 0 1
    outer loop
      vertex 2.19393 0.75 7.4
      vertex -2.19393 5 7.4
      vertex -2.19393 0.75 7.4
    endloop
  endfacet
  facet normal -0.866025 0 -0.5
    outer loop
      vertex -2.3094 8 5.72205e-07
      vertex -4.38786 42 3.6
      vertex -2.3094 42 5.72205e-07
    endloop
  endfacet
  facet normal -0.866025 -0 -0.5
    outer loop
      vertex -4.38786 42 3.6
      vertex -2.3094 8 5.72205e-07
      vertex -4.38786 8 3.6
    endloop
  endfacet
  facet normal -0.866025 0 -0.5
    outer loop
      vertex -2.3094 45 5.72205e-07
      vertex -4.38786 49.25 3.6
      vertex -2.3094 49.25 5.72205e-07
    endloop
  endfacet
  facet normal -0.866025 -0 -0.5
    outer loop
      vertex -4.38786 49.25 3.6
      vertex -2.3094 45 5.72205e-07
      vertex -4.38786 45 3.6
    endloop
  endfacet
  facet normal -0.866025 0 -0.5
    outer loop
      vertex -2.3094 0.75 5.72205e-07
      vertex -4.38786 5 3.6
      vertex -2.3094 5 5.72205e-07
    endloop
  endfacet
  facet normal -0.866025 -0 -0.5
    outer loop
      vertex -4.38786 5 3.6
      vertex -2.3094 0.75 5.72205e-07
      vertex -4.38786 0.75 3.6
    endloop
  endfacet
  facet normal 0.805837 -0.366292 0.46525
    outer loop
      vertex 2.19393 0.75 7.4
      vertex 2.06893 0.2 7.18349
      vertex 4.38786 0.75 3.6
    endloop
  endfacet
  facet normal 0.866025 0 -0.5
    outer loop
      vertex 4.38786 8 3.6
      vertex 2.3094 42 5.72205e-07
      vertex 4.38786 42 3.6
    endloop
  endfacet
  facet normal 0.866025 0 -0.5
    outer loop
      vertex 2.3094 42 5.72205e-07
      vertex 4.38786 8 3.6
      vertex 2.3094 8 5.72205e-07
    endloop
  endfacet
  facet normal 0.866025 0 -0.5
    outer loop
      vertex 4.38786 45 3.6
      vertex 2.3094 49.25 5.72205e-07
      vertex 4.38786 49.25 3.6
    endloop
  endfacet
  facet normal 0.866025 0 -0.5
    outer loop
      vertex 2.3094 49.25 5.72205e-07
      vertex 4.38786 45 3.6
      vertex 2.3094 45 5.72205e-07
    endloop
  endfacet
  facet normal 0.866025 0 -0.5
    outer loop
      vertex 4.38786 0.75 3.6
      vertex 2.3094 5 5.72205e-07
      vertex 4.38786 5 3.6
    endloop
  endfacet
  facet normal 0.866025 0 -0.5
    outer loop
      vertex 2.3094 5 5.72205e-07
      vertex 4.38786 0.75 3.6
      vertex 2.3094 0.75 5.72205e-07
    endloop
  endfacet
  facet normal 0 -0.366295 0.930499
    outer loop
      vertex 2.19393 0.75 7.4
      vertex -2.06893 0.2 7.18349
      vertex 2.06893 0.2 7.18349
    endloop
  endfacet
  facet normal 0 -0.366295 0.930499
    outer loop
      vertex -2.06893 0.2 7.18349
      vertex 2.19393 0.75 7.4
      vertex -2.19393 0.75 7.4
    endloop
  endfacet
  facet normal -0.805837 -0.366292 0.46525
    outer loop
      vertex -2.19393 0.75 7.4
      vertex -4.38786 0.75 3.6
      vertex -2.06893 0.2 7.18349
    endloop
  endfacet
  facet normal -0.866026 0 0.5
    outer loop
      vertex -4.38786 8 3.6
      vertex -2.19393 42 7.4
      vertex -4.38786 42 3.6
    endloop
  endfacet
  facet normal -0.866026 0 0.5
    outer loop
      vertex -2.19393 42 7.4
      vertex -4.38786 8 3.6
      vertex -2.19393 8 7.4
    endloop
  endfacet
  facet normal -0.866026 0 0.5
    outer loop
      vertex -4.38786 45 3.6
      vertex -2.19393 49.25 7.4
      vertex -4.38786 49.25 3.6
    endloop
  endfacet
  facet normal -0.866026 0 0.5
    outer loop
      vertex -2.19393 49.25 7.4
      vertex -4.38786 45 3.6
      vertex -2.19393 45 7.4
    endloop
  endfacet
  facet normal -0.866026 0 0.5
    outer loop
      vertex -4.38786 0.75 3.6
      vertex -2.19393 5 7.4
      vertex -4.38786 5 3.6
    endloop
  endfacet
  facet normal -0.866026 0 0.5
    outer loop
      vertex -2.19393 5 7.4
      vertex -4.38786 0.75 3.6
      vertex -2.19393 0.75 7.4
    endloop
  endfacet
  facet normal 0.866026 -0 0.5
    outer loop
      vertex 2.19393 8 7.4
      vertex 4.38786 42 3.6
      vertex 2.19393 42 7.4
    endloop
  endfacet
  facet normal 0.866026 0 0.5
    outer loop
      vertex 4.38786 42 3.6
      vertex 2.19393 8 7.4
      vertex 4.38786 8 3.6
    endloop
  endfacet
  facet normal 0.866026 -0 0.5
    outer loop
      vertex 2.19393 45 7.4
      vertex 4.38786 49.25 3.6
      vertex 2.19393 49.25 7.4
    endloop
  endfacet
  facet normal 0.866026 0 0.5
    outer loop
      vertex 4.38786 49.25 3.6
      vertex 2.19393 45 7.4
      vertex 4.38786 45 3.6
    endloop
  endfacet
  facet normal 0.866026 -0 0.5
    outer loop
      vertex 2.19393 0.75 7.4
      vertex 4.38786 5 3.6
      vertex 2.19393 5 7.4
    endloop
  endfacet
  facet normal 0.866026 0 0.5
    outer loop
      vertex 4.38786 5 3.6
      vertex 2.19393 0.75 7.4
      vertex 4.38786 0.75 3.6
    endloop
  endfacet
  facet normal -0.805837 -0.36629 -0.46525
    outer loop
      vertex -4.13786 0.2 3.6
      vertex -4.38786 0.75 3.6
      vertex -2.06893 0.2 0.0165068
    endloop
  endfacet
  facet normal 0.805837 0.366292 0.46525
    outer loop
      vertex 4.38786 49.25 3.6
      vertex 2.06893 49.8 7.18349
      vertex 2.19393 49.25 7.4
    endloop
  endfacet
  facet normal -0.805837 -0.36629 0.465251
    outer loop
      vertex -2.06893 0.2 7.18349
      vertex -4.38786 0.75 3.6
      vertex -4.13786 0.2 3.6
    endloop
  endfacet
  facet normal 0.805837 0.36629 -0.46525
    outer loop
      vertex 4.38786 49.25 3.6
      vertex 2.06893 49.8 0.0165068
      vertex 4.13786 49.8 3.6
    endloop
  endfacet
  facet normal 6.66648e-05 0.36634 -0.930481
    outer loop
      vertex -2.07846 49.7581 5.72205e-07
      vertex -1.94245 49.8 0.0165068
      vertex -1.91342 49.7806 0.00887089
    endloop
  endfacet
  facet normal 0 0.366764 -0.930314
    outer loop
      vertex -2.07846 49.7581 5.72205e-07
      vertex -1.91342 49.7806 0.00887089
      vertex -1.80013 49.7581 5.72205e-07
    endloop
  endfacet
  facet normal 0 0.366528 -0.930407
    outer loop
      vertex -1.94245 49.8 0.0165068
      vertex -2.07846 49.7581 5.72205e-07
      vertex -2.06893 49.8 0.0165068
    endloop
  endfacet
  facet normal 0 0.366528 -0.930407
    outer loop
      vertex 2.07846 49.7581 5.72205e-07
      vertex 1.94245 49.8 0.0165068
      vertex 2.06893 49.8 0.0165068
    endloop
  endfacet
  facet normal -6.66648e-05 0.36634 -0.930481
    outer loop
      vertex 2.07846 49.7581 5.72205e-07
      vertex 1.91342 49.7806 0.00887089
      vertex 1.94245 49.8 0.0165068
    endloop
  endfacet
  facet normal 0 0.366764 -0.930314
    outer loop
      vertex 1.91342 49.7806 0.00887089
      vertex 2.07846 49.7581 5.72205e-07
      vertex 1.80013 49.7581 5.72205e-07
    endloop
  endfacet
  facet normal -0 0.366295 0.930499
    outer loop
      vertex -2.06893 49.8 7.18349
      vertex 2.19393 49.25 7.4
      vertex 2.06893 49.8 7.18349
    endloop
  endfacet
  facet normal 0 0.366295 0.930499
    outer loop
      vertex 2.19393 49.25 7.4
      vertex -2.06893 49.8 7.18349
      vertex -2.19393 49.25 7.4
    endloop
  endfacet
  facet normal 0.805837 0.36629 0.465251
    outer loop
      vertex 4.13786 49.8 3.6
      vertex 2.06893 49.8 7.18349
      vertex 4.38786 49.25 3.6
    endloop
  endfacet
  facet normal -0.805837 0.36629 -0.46525
    outer loop
      vertex -2.06893 49.8 0.0165068
      vertex -4.38786 49.25 3.6
      vertex -4.13786 49.8 3.6
    endloop
  endfacet
  facet normal 0 1 0
    outer loop
      vertex 1.94245 49.8 0.5
      vertex 2.06893 49.8 7.18349
      vertex 4.13786 49.8 3.6
    endloop
  endfacet
  facet normal 0 1 0
    outer loop
      vertex 2.06893 49.8 7.18349
      vertex 1.94245 49.8 0.5
      vertex -2.06893 49.8 7.18349
    endloop
  endfacet
  facet normal 0 1 -0
    outer loop
      vertex -1.94245 49.8 0.5
      vertex -2.06893 49.8 7.18349
      vertex 1.94245 49.8 0.5
    endloop
  endfacet
  facet normal 0 1 -0
    outer loop
      vertex 2.06893 49.8 0.0165068
      vertex 1.94245 49.8 0.5
      vertex 4.13786 49.8 3.6
    endloop
  endfacet
  facet normal 0 1 0
    outer loop
      vertex 1.94245 49.8 0.5
      vertex 2.06893 49.8 0.0165068
      vertex 1.94245 49.8 0.0165068
    endloop
  endfacet
  facet normal 0 1 0
    outer loop
      vertex -2.06893 49.8 7.18349
      vertex -1.94245 49.8 0.5
      vertex -4.13786 49.8 3.6
    endloop
  endfacet
  facet normal 0 1 0
    outer loop
      vertex -2.06893 49.8 0.0165068
      vertex -1.94245 49.8 0.5
      vertex -1.94245 49.8 0.0165068
    endloop
  endfacet
  facet normal 0 1 0
    outer loop
      vertex -1.94245 49.8 0.5
      vertex -2.06893 49.8 0.0165068
      vertex -4.13786 49.8 3.6
    endloop
  endfacet
  facet normal -0.805837 0.36629 0.465251
    outer loop
      vertex -4.13786 49.8 3.6
      vertex -4.38786 49.25 3.6
      vertex -2.06893 49.8 7.18349
    endloop
  endfacet
  facet normal -0.805837 0.366292 0.46525
    outer loop
      vertex -2.06893 49.8 7.18349
      vertex -4.38786 49.25 3.6
      vertex -2.19393 49.25 7.4
    endloop
  endfacet
  facet normal -0.794722 0.397352 -0.458833
    outer loop
      vertex -5.38786 6 3.6
      vertex -3.08094 6.45693 5.72205e-07
      vertex -3.3094 6 5.72205e-07
    endloop
  endfacet
  facet normal -0.79472 0.39736 -0.45883
    outer loop
      vertex -3.08094 6.45693 5.72205e-07
      vertex -5.38786 6 3.6
      vertex -4.38786 8 3.6
    endloop
  endfacet
  facet normal 0.79472 0.39736 -0.45883
    outer loop
      vertex 5.38786 6 3.6
      vertex 3.08094 6.45693 5.72205e-07
      vertex 4.38786 8 3.6
    endloop
  endfacet
  facet normal 0.794722 0.397352 -0.458833
    outer loop
      vertex 3.08094 6.45693 5.72205e-07
      vertex 5.38786 6 3.6
      vertex 3.3094 6 5.72205e-07
    endloop
  endfacet
  facet normal -0 0 1
    outer loop
      vertex -2.69393 6 8.26603
      vertex 2.69393 5 8.26603
      vertex 2.69393 6 8.26603
    endloop
  endfacet
  facet normal 0 0 1
    outer loop
      vertex 2.69393 5 8.26603
      vertex -2.69393 6 8.26603
      vertex -2.69393 5 8.26603
    endloop
  endfacet
  facet normal -0.79472 0.39736 0.458831
    outer loop
      vertex -4.38786 8 3.6
      vertex -5.38786 6 3.6
      vertex -2.69393 6 8.26603
    endloop
  endfacet
  facet normal 0.79472 0.39736 0.458831
    outer loop
      vertex 4.38786 8 3.6
      vertex 2.69393 6 8.26603
      vertex 5.38786 6 3.6
    endloop
  endfacet
  facet normal 0.794719 0.397361 0.458831
    outer loop
      vertex 4.38786 8 3.6
      vertex 2.19393 8 7.4
      vertex 2.69393 6 8.26603
    endloop
  endfacet
  facet normal -0.794719 0.397362 -0.458831
    outer loop
      vertex -3.08094 6.45693 5.72205e-07
      vertex -4.38786 8 3.6
      vertex -2.3094 8 5.72205e-07
    endloop
  endfacet
  facet normal 0.866026 -0 0.499999
    outer loop
      vertex 2.69393 5 8.26603
      vertex 5.38786 6 3.6
      vertex 2.69393 6 8.26603
    endloop
  endfacet
  facet normal 0.866026 0 0.499999
    outer loop
      vertex 5.38786 6 3.6
      vertex 2.69393 5 8.26603
      vertex 5.38786 5 3.6
    endloop
  endfacet
  facet normal -0.866025 0 -0.5
    outer loop
      vertex -3.3094 5 5.72205e-07
      vertex -5.38786 6 3.6
      vertex -3.3094 6 5.72205e-07
    endloop
  endfacet
  facet normal -0.866025 -0 -0.5
    outer loop
      vertex -5.38786 6 3.6
      vertex -3.3094 5 5.72205e-07
      vertex -5.38786 5 3.6
    endloop
  endfacet
  facet normal -0.866026 0 0.499999
    outer loop
      vertex -5.38786 5 3.6
      vertex -2.69393 6 8.26603
      vertex -5.38786 6 3.6
    endloop
  endfacet
  facet normal -0.866026 0 0.499999
    outer loop
      vertex -2.69393 6 8.26603
      vertex -5.38786 5 3.6
      vertex -2.69393 5 8.26603
    endloop
  endfacet
  facet normal 0 -1 0
    outer loop
      vertex -2.69393 5 8.26603
      vertex -2.19393 5 7.4
      vertex 2.69393 5 8.26603
    endloop
  endfacet
  facet normal 0 -1 0
    outer loop
      vertex -5.38786 5 3.6
      vertex -2.19393 5 7.4
      vertex -2.69393 5 8.26603
    endloop
  endfacet
  facet normal 0 -1 0
    outer loop
      vertex -5.38786 5 3.6
      vertex -4.38786 5 3.6
      vertex -2.19393 5 7.4
    endloop
  endfacet
  facet normal 0 -1 0
    outer loop
      vertex -3.3094 5 5.72205e-07
      vertex -4.38786 5 3.6
      vertex -5.38786 5 3.6
    endloop
  endfacet
  facet normal 0 -1 0
    outer loop
      vertex -4.38786 5 3.6
      vertex -3.3094 5 5.72205e-07
      vertex -2.3094 5 5.72205e-07
    endloop
  endfacet
  facet normal 0 -1 0
    outer loop
      vertex 2.19393 5 7.4
      vertex 2.69393 5 8.26603
      vertex -2.19393 5 7.4
    endloop
  endfacet
  facet normal 0 -1 0
    outer loop
      vertex 4.38786 5 3.6
      vertex 2.69393 5 8.26603
      vertex 2.19393 5 7.4
    endloop
  endfacet
  facet normal 0 -1 0
    outer loop
      vertex 4.38786 5 3.6
      vertex 5.38786 5 3.6
      vertex 2.69393 5 8.26603
    endloop
  endfacet
  facet normal 0 -1 0
    outer loop
      vertex 3.3094 5 5.72205e-07
      vertex 4.38786 5 3.6
      vertex 2.3094 5 5.72205e-07
    endloop
  endfacet
  facet normal 0 -1 -0
    outer loop
      vertex 4.38786 5 3.6
      vertex 3.3094 5 5.72205e-07
      vertex 5.38786 5 3.6
    endloop
  endfacet
  facet normal -0 0.397361 0.917662
    outer loop
      vertex -2.19393 8 7.4
      vertex 2.69393 6 8.26603
      vertex 2.19393 8 7.4
    endloop
  endfacet
  facet normal 0 0.397361 0.917662
    outer loop
      vertex 2.69393 6 8.26603
      vertex -2.19393 8 7.4
      vertex -2.69393 6 8.26603
    endloop
  endfacet
  facet normal 0.866025 0 -0.5
    outer loop
      vertex 5.38786 5 3.6
      vertex 3.3094 6 5.72205e-07
      vertex 5.38786 6 3.6
    endloop
  endfacet
  facet normal 0.866025 0 -0.5
    outer loop
      vertex 3.3094 6 5.72205e-07
      vertex 5.38786 5 3.6
      vertex 3.3094 5 5.72205e-07
    endloop
  endfacet
  facet normal 0.794719 0.397362 -0.458831
    outer loop
      vertex 3.08094 6.45693 5.72205e-07
      vertex 2.3094 8 5.72205e-07
      vertex 4.38786 8 3.6
    endloop
  endfacet
  facet normal -0.794719 0.397361 0.458831
    outer loop
      vertex -2.19393 8 7.4
      vertex -4.38786 8 3.6
      vertex -2.69393 6 8.26603
    endloop
  endfacet
  facet normal 0.866025 0 -0.5
    outer loop
      vertex 5.54256 44 3.6
      vertex 3.4641 45 5.72205e-07
      vertex 5.54256 45 3.6
    endloop
  endfacet
  facet normal 0.866025 0 -0.5
    outer loop
      vertex 3.4641 45 5.72205e-07
      vertex 5.54256 44 3.6
      vertex 3.4641 44 5.72205e-07
    endloop
  endfacet
  facet normal 0.774593 -0.447222 -0.447211
    outer loop
      vertex 5.54256 44 3.6
      vertex 2.37017 42.1053 5.72205e-07
      vertex 3.4641 44 5.72205e-07
    endloop
  endfacet
  facet normal -0 0 1
    outer loop
      vertex -2.77128 45 8.4
      vertex 2.77128 44 8.4
      vertex 2.77128 45 8.4
    endloop
  endfacet
  facet normal 0 0 1
    outer loop
      vertex 2.77128 44 8.4
      vertex -2.77128 45 8.4
      vertex -2.77128 44 8.4
    endloop
  endfacet
  facet normal -0.866026 0 0.5
    outer loop
      vertex -5.54256 44 3.6
      vertex -2.77128 45 8.4
      vertex -5.54256 45 3.6
    endloop
  endfacet
  facet normal -0.866026 0 0.5
    outer loop
      vertex -2.77128 45 8.4
      vertex -5.54256 44 3.6
      vertex -2.77128 44 8.4
    endloop
  endfacet
  facet normal 0 1 0
    outer loop
      vertex 2.77128 45 8.4
      vertex 2.19393 45 7.4
      vertex -2.77128 45 8.4
    endloop
  endfacet
  facet normal 0 1 0
    outer loop
      vertex 5.54256 45 3.6
      vertex 2.19393 45 7.4
      vertex 2.77128 45 8.4
    endloop
  endfacet
  facet normal 0 1 0
    outer loop
      vertex 5.54256 45 3.6
      vertex 4.38786 45 3.6
      vertex 2.19393 45 7.4
    endloop
  endfacet
  facet normal 0 1 0
    outer loop
      vertex 3.4641 45 5.72205e-07
      vertex 4.38786 45 3.6
      vertex 5.54256 45 3.6
    endloop
  endfacet
  facet normal 0 1 0
    outer loop
      vertex 4.38786 45 3.6
      vertex 3.4641 45 5.72205e-07
      vertex 2.3094 45 5.72205e-07
    endloop
  endfacet
  facet normal 0 1 -0
    outer loop
      vertex -2.19393 45 7.4
      vertex -2.77128 45 8.4
      vertex 2.19393 45 7.4
    endloop
  endfacet
  facet normal 0 1 0
    outer loop
      vertex -4.38786 45 3.6
      vertex -2.77128 45 8.4
      vertex -2.19393 45 7.4
    endloop
  endfacet
  facet normal 0 1 -0
    outer loop
      vertex -4.38786 45 3.6
      vertex -5.54256 45 3.6
      vertex -2.77128 45 8.4
    endloop
  endfacet
  facet normal 0 1 -0
    outer loop
      vertex -3.4641 45 5.72205e-07
      vertex -4.38786 45 3.6
      vertex -2.3094 45 5.72205e-07
    endloop
  endfacet
  facet normal 0 1 0
    outer loop
      vertex -4.38786 45 3.6
      vertex -3.4641 45 5.72205e-07
      vertex -5.54256 45 3.6
    endloop
  endfacet
  facet normal -0.866025 0 -0.5
    outer loop
      vertex -3.4641 44 5.72205e-07
      vertex -5.54256 45 3.6
      vertex -3.4641 45 5.72205e-07
    endloop
  endfacet
  facet normal -0.866025 -0 -0.5
    outer loop
      vertex -5.54256 45 3.6
      vertex -3.4641 44 5.72205e-07
      vertex -5.54256 44 3.6
    endloop
  endfacet
  facet normal 0 -0.447214 0.894427
    outer loop
      vertex 2.77128 44 8.4
      vertex -2.19393 42 7.4
      vertex 2.19393 42 7.4
    endloop
  endfacet
  facet normal 0 -0.447214 0.894427
    outer loop
      vertex -2.19393 42 7.4
      vertex 2.77128 44 8.4
      vertex -2.77128 44 8.4
    endloop
  endfacet
  facet normal -0.774597 -0.447213 0.447213
    outer loop
      vertex -2.77128 44 8.4
      vertex -5.54256 44 3.6
      vertex -2.19393 42 7.4
    endloop
  endfacet
  facet normal 0.774597 -0.447213 0.447213
    outer loop
      vertex 2.77128 44 8.4
      vertex 2.19393 42 7.4
      vertex 5.54256 44 3.6
    endloop
  endfacet
  facet normal -0.774597 -0.447213 0.447213
    outer loop
      vertex -2.19393 42 7.4
      vertex -5.54256 44 3.6
      vertex -4.38786 42 3.6
    endloop
  endfacet
  facet normal 0.866026 -0 0.5
    outer loop
      vertex 2.77128 44 8.4
      vertex 5.54256 45 3.6
      vertex 2.77128 45 8.4
    endloop
  endfacet
  facet normal 0.866026 0 0.5
    outer loop
      vertex 5.54256 45 3.6
      vertex 2.77128 44 8.4
      vertex 5.54256 44 3.6
    endloop
  endfacet
  facet normal -0.77466 -0.447067 -0.44725
    outer loop
      vertex -4.38786 42 3.6
      vertex -2.37017 42.1053 5.72205e-07
      vertex -2.3094 42 5.72205e-07
    endloop
  endfacet
  facet normal -0.774595 -0.447212 -0.447218
    outer loop
      vertex -2.37017 42.1053 5.72205e-07
      vertex -4.38786 42 3.6
      vertex -5.54256 44 3.6
    endloop
  endfacet
  facet normal -0.774593 -0.447222 -0.447211
    outer loop
      vertex -2.37017 42.1053 5.72205e-07
      vertex -5.54256 44 3.6
      vertex -3.4641 44 5.72205e-07
    endloop
  endfacet
  facet normal 0.774595 -0.447212 -0.447218
    outer loop
      vertex 4.38786 42 3.6
      vertex 2.37017 42.1053 5.72205e-07
      vertex 5.54256 44 3.6
    endloop
  endfacet
  facet normal 0.77466 -0.447067 -0.44725
    outer loop
      vertex 2.37017 42.1053 5.72205e-07
      vertex 4.38786 42 3.6
      vertex 2.3094 42 5.72205e-07
    endloop
  endfacet
  facet normal 0.774597 -0.447213 0.447213
    outer loop
      vertex 5.54256 44 3.6
      vertex 2.19393 42 7.4
      vertex 4.38786 42 3.6
    endloop
  endfacet
  facet normal -0 0 -1
    outer loop
      vertex 2.3094 45 5.72205e-07
      vertex -2.37017 42.1053 5.72205e-07
      vertex -2.3094 45 5.72205e-07
    endloop
  endfacet
  facet normal 0 0 -1
    outer loop
      vertex -3.4641 44 5.72205e-07
      vertex -2.3094 45 5.72205e-07
      vertex -2.37017 42.1053 5.72205e-07
    endloop
  endfacet
  facet normal -0 0 -1
    outer loop
      vertex -2.3094 45 5.72205e-07
      vertex -3.4641 44 5.72205e-07
      vertex -3.4641 45 5.72205e-07
    endloop
  endfacet
  facet normal 0 0 -1
    outer loop
      vertex -2.3094 5 5.72205e-07
      vertex -3.08094 6.45693 5.72205e-07
      vertex -2.3094 8 5.72205e-07
    endloop
  endfacet
  facet normal 0 0 -1
    outer loop
      vertex -3.3094 6 5.72205e-07
      vertex -2.3094 5 5.72205e-07
      vertex -3.3094 5 5.72205e-07
    endloop
  endfacet
  facet normal 0 0 -1
    outer loop
      vertex -2.3094 5 5.72205e-07
      vertex -3.3094 6 5.72205e-07
      vertex -3.08094 6.45693 5.72205e-07
    endloop
  endfacet
  facet normal 0 0 -1
    outer loop
      vertex 0 0.599999 5.72205e-07
      vertex 2.3094 5 5.72205e-07
      vertex 2.3094 0.75 5.72205e-07
    endloop
  endfacet
  facet normal 0 0 -1
    outer loop
      vertex 2.3094 5 5.72205e-07
      vertex -2.3094 5 5.72205e-07
      vertex 2.3094 8 5.72205e-07
    endloop
  endfacet
  facet normal 0 0 -1
    outer loop
      vertex 2.3094 8 5.72205e-07
      vertex -2.3094 8 5.72205e-07
      vertex 2.3094 42 5.72205e-07
    endloop
  endfacet
  facet normal 0 0 -1
    outer loop
      vertex -2.3094 42 5.72205e-07
      vertex 2.3094 42 5.72205e-07
      vertex -2.3094 8 5.72205e-07
    endloop
  endfacet
  facet normal 0 0 -1
    outer loop
      vertex 1.80013 0.241931 5.72205e-07
      vertex 2.3094 0.75 5.72205e-07
      vertex 2.07846 0.241931 5.72205e-07
    endloop
  endfacet
  facet normal 0 0 -1
    outer loop
      vertex -2.37017 42.1053 5.72205e-07
      vertex 2.3094 42 5.72205e-07
      vertex -2.3094 42 5.72205e-07
    endloop
  endfacet
  facet normal 0 -0 -1
    outer loop
      vertex 0 49.4 5.72205e-07
      vertex 2.3094 45 5.72205e-07
      vertex -2.3094 45 5.72205e-07
    endloop
  endfacet
  facet normal 0 0 -1
    outer loop
      vertex 0 0.599999 5.72205e-07
      vertex 2.3094 0.75 5.72205e-07
      vertex 1.80013 0.241931 5.72205e-07
    endloop
  endfacet
  facet normal -0 0 -1
    outer loop
      vertex 2.3094 5 5.72205e-07
      vertex 0 0.599999 5.72205e-07
      vertex -2.3094 5 5.72205e-07
    endloop
  endfacet
  facet normal 0 0 -1
    outer loop
      vertex 2.37017 42.1053 5.72205e-07
      vertex -2.37017 42.1053 5.72205e-07
      vertex 2.3094 45 5.72205e-07
    endloop
  endfacet
  facet normal 0 0 -1
    outer loop
      vertex -2.3094 0.75 5.72205e-07
      vertex 0 0.599999 5.72205e-07
      vertex -1.80013 0.241931 5.72205e-07
    endloop
  endfacet
  facet normal 0 0 -1
    outer loop
      vertex 2.3094 45 5.72205e-07
      vertex 0 49.4 5.72205e-07
      vertex 2.3094 49.25 5.72205e-07
    endloop
  endfacet
  facet normal 0 0 -1
    outer loop
      vertex -2.3094 0.75 5.72205e-07
      vertex -1.80013 0.241931 5.72205e-07
      vertex -2.07846 0.241931 5.72205e-07
    endloop
  endfacet
  facet normal 0 0 -1
    outer loop
      vertex 2.3094 49.25 5.72205e-07
      vertex 1.80013 49.7581 5.72205e-07
      vertex 2.07846 49.7581 5.72205e-07
    endloop
  endfacet
  facet normal 0 0 -1
    outer loop
      vertex 0 0.599999 5.72205e-07
      vertex -2.3094 0.75 5.72205e-07
      vertex -2.3094 5 5.72205e-07
    endloop
  endfacet
  facet normal -0 0 -1
    outer loop
      vertex 2.3094 8 5.72205e-07
      vertex -2.3094 5 5.72205e-07
      vertex -2.3094 8 5.72205e-07
    endloop
  endfacet
  facet normal 0 0 -1
    outer loop
      vertex 2.3094 49.25 5.72205e-07
      vertex 0 49.4 5.72205e-07
      vertex 1.80013 49.7581 5.72205e-07
    endloop
  endfacet
  facet normal 0 0 -1
    outer loop
      vertex -2.3094 49.25 5.72205e-07
      vertex 0 49.4 5.72205e-07
      vertex -2.3094 45 5.72205e-07
    endloop
  endfacet
  facet normal -0 0 -1
    outer loop
      vertex 0 49.4 5.72205e-07
      vertex -2.3094 49.25 5.72205e-07
      vertex -1.80013 49.7581 5.72205e-07
    endloop
  endfacet
  facet normal -0 0 -1
    outer loop
      vertex -1.80013 49.7581 5.72205e-07
      vertex -2.3094 49.25 5.72205e-07
      vertex -2.07846 49.7581 5.72205e-07
    endloop
  endfacet
  facet normal 0 0 -1
    outer loop
      vertex 2.3094 5 5.72205e-07
      vertex 3.3094 6 5.72205e-07
      vertex 3.3094 5 5.72205e-07
    endloop
  endfacet
  facet normal -0 0 -1
    outer loop
      vertex 3.3094 6 5.72205e-07
      vertex 2.3094 5 5.72205e-07
      vertex 3.08094 6.45693 5.72205e-07
    endloop
  endfacet
  facet normal -0 0 -1
    outer loop
      vertex 3.08094 6.45693 5.72205e-07
      vertex 2.3094 5 5.72205e-07
      vertex 2.3094 8 5.72205e-07
    endloop
  endfacet
  facet normal 0 0 -1
    outer loop
      vertex 2.3094 45 5.72205e-07
      vertex 3.4641 44 5.72205e-07
      vertex 2.37017 42.1053 5.72205e-07
    endloop
  endfacet
  facet normal 0 0 -1
    outer loop
      vertex -2.37017 42.1053 5.72205e-07
      vertex 2.37017 42.1053 5.72205e-07
      vertex 2.3094 42 5.72205e-07
    endloop
  endfacet
  facet normal 0 0 -1
    outer loop
      vertex 3.4641 44 5.72205e-07
      vertex 2.3094 45 5.72205e-07
      vertex 3.4641 45 5.72205e-07
    endloop
  endfacet
  facet normal -0.831468 0.555573 0
    outer loop
      vertex -4.6194 -2.48658 0
      vertex -3.53553 -0.864466 0.5
      vertex -3.53553 -0.864466 0
    endloop
  endfacet
  facet normal -0.831468 0.555573 0
    outer loop
      vertex -3.53553 -0.864466 0.5
      vertex -4.6194 -2.48658 0
      vertex -4.6194 -2.48658 0.5
    endloop
  endfacet
  facet normal 0.831468 0.555573 0
    outer loop
      vertex 4.6194 -2.48658 0.5
      vertex 3.53553 -0.864466 0
      vertex 3.53553 -0.864466 0.5
    endloop
  endfacet
  facet normal 0.831468 0.555573 0
    outer loop
      vertex 3.53553 -0.864466 0
      vertex 4.6194 -2.48658 0.5
      vertex 4.6194 -2.48658 0
    endloop
  endfacet
  facet normal 0.980786 0.195089 0
    outer loop
      vertex 5 -4.4 0.5
      vertex 4.6194 -2.48658 0
      vertex 4.6194 -2.48658 0.5
    endloop
  endfacet
  facet normal 0.980786 0.195089 0
    outer loop
      vertex 4.6194 -2.48658 0
      vertex 5 -4.4 0.5
      vertex 5 -4.4 0
    endloop
  endfacet
  facet normal 0.555572 0.831469 0
    outer loop
      vertex 3.53553 -0.864466 0.5
      vertex 1.94245 0.2 0.0165068
      vertex 1.94245 0.2 0.5
    endloop
  endfacet
  facet normal 0.555572 0.831469 -0
    outer loop
      vertex 3.53553 -0.864466 0
      vertex 1.94245 0.2 0.0165068
      vertex 3.53553 -0.864466 0.5
    endloop
  endfacet
  facet normal 0.555572 0.831468 3.47128e-05
    outer loop
      vertex 1.91342 0.219398 0
      vertex 1.94245 0.2 0.0165068
      vertex 3.53553 -0.864466 0
    endloop
  endfacet
  facet normal 0.555586 0.831459 0
    outer loop
      vertex 1.94245 0.2 0.0165068
      vertex 1.91342 0.219398 0
      vertex 1.91342 0.219398 0.0088709
    endloop
  endfacet
  facet normal 0.831467 -0.555574 0
    outer loop
      vertex 3.53553 -7.93553 0.5
      vertex 4.6194 -6.31342 0
      vertex 4.6194 -6.31342 0.5
    endloop
  endfacet
  facet normal 0.831467 -0.555574 0
    outer loop
      vertex 4.6194 -6.31342 0
      vertex 3.53553 -7.93553 0.5
      vertex 3.53553 -7.93553 0
    endloop
  endfacet
  facet normal 0.195089 -0.980786 0
    outer loop
      vertex 0 -9.4 0
      vertex 1.91342 -9.0194 0.5
      vertex 0 -9.4 0.5
    endloop
  endfacet
  facet normal 0.195089 -0.980786 0
    outer loop
      vertex 1.91342 -9.0194 0.5
      vertex 0 -9.4 0
      vertex 1.91342 -9.0194 0
    endloop
  endfacet
  facet normal 0.195075 0.980788 -0
    outer loop
      vertex 1.91342 0.219398 0
      vertex 1.80013 0.241931 5.72205e-07
      vertex 1.91342 0.219398 0.0088709
    endloop
  endfacet
  facet normal 0.0643589 0.323556 0.944018
    outer loop
      vertex 0 0.599999 0
      vertex 1.80013 0.241931 5.72205e-07
      vertex 1.91342 0.219398 0
    endloop
  endfacet
  facet normal 0.19509 0.980785 0
    outer loop
      vertex 1.80013 0.241931 5.72205e-07
      vertex 0 0.599999 0
      vertex 0 0.599999 5.72205e-07
    endloop
  endfacet
  facet normal 0.980786 -0.195089 0
    outer loop
      vertex 4.6194 -6.31342 0.5
      vertex 5 -4.4 0
      vertex 5 -4.4 0.5
    endloop
  endfacet
  facet normal 0.980786 -0.195089 0
    outer loop
      vertex 5 -4.4 0
      vertex 4.6194 -6.31342 0.5
      vertex 4.6194 -6.31342 0
    endloop
  endfacet
  facet normal -0.555572 0.831469 0
    outer loop
      vertex -1.94245 0.2 0.0165068
      vertex -3.53553 -0.864466 0.5
      vertex -1.94245 0.2 0.5
    endloop
  endfacet
  facet normal -0.555586 0.831459 0
    outer loop
      vertex -1.91342 0.219398 0
      vertex -1.94245 0.2 0.0165068
      vertex -1.91342 0.219398 0.0088709
    endloop
  endfacet
  facet normal -0.555572 0.831468 3.47128e-05
    outer loop
      vertex -3.53553 -0.864466 0
      vertex -1.94245 0.2 0.0165068
      vertex -1.91342 0.219398 0
    endloop
  endfacet
  facet normal -0.555572 0.831469 0
    outer loop
      vertex -1.94245 0.2 0.0165068
      vertex -3.53553 -0.864466 0
      vertex -3.53553 -0.864466 0.5
    endloop
  endfacet
  facet normal -0.831467 -0.555574 0
    outer loop
      vertex -3.53553 -7.93553 0
      vertex -4.6194 -6.31342 0.5
      vertex -4.6194 -6.31342 0
    endloop
  endfacet
  facet normal -0.831467 -0.555574 0
    outer loop
      vertex -4.6194 -6.31342 0.5
      vertex -3.53553 -7.93553 0
      vertex -3.53553 -7.93553 0.5
    endloop
  endfacet
  facet normal -0.195089 -0.980786 0
    outer loop
      vertex -1.91342 -9.0194 0
      vertex 0 -9.4 0.5
      vertex -1.91342 -9.0194 0.5
    endloop
  endfacet
  facet normal -0.195089 -0.980786 -0
    outer loop
      vertex 0 -9.4 0.5
      vertex -1.91342 -9.0194 0
      vertex 0 -9.4 0
    endloop
  endfacet
  facet normal -0.980786 0.195089 0
    outer loop
      vertex -5 -4.4 0
      vertex -4.6194 -2.48658 0.5
      vertex -4.6194 -2.48658 0
    endloop
  endfacet
  facet normal -0.980786 0.195089 0
    outer loop
      vertex -4.6194 -2.48658 0.5
      vertex -5 -4.4 0
      vertex -5 -4.4 0.5
    endloop
  endfacet
  facet normal 0.555574 -0.831467 0
    outer loop
      vertex 1.91342 -9.0194 0
      vertex 3.53553 -7.93553 0.5
      vertex 1.91342 -9.0194 0.5
    endloop
  endfacet
  facet normal 0.555574 -0.831467 0
    outer loop
      vertex 3.53553 -7.93553 0.5
      vertex 1.91342 -9.0194 0
      vertex 3.53553 -7.93553 0
    endloop
  endfacet
  facet normal 0 0 -1
    outer loop
      vertex 4.6194 -6.31342 0
      vertex 4.6194 -2.48658 0
      vertex 5 -4.4 0
    endloop
  endfacet
  facet normal 0 0 -1
    outer loop
      vertex 3.53553 -7.93553 0
      vertex 4.6194 -2.48658 0
      vertex 4.6194 -6.31342 0
    endloop
  endfacet
  facet normal 0 0 -1
    outer loop
      vertex 3.53553 -7.93553 0
      vertex 3.53553 -0.864466 0
      vertex 4.6194 -2.48658 0
    endloop
  endfacet
  facet normal 0 0 -1
    outer loop
      vertex 1.91342 -9.0194 0
      vertex 3.53553 -0.864466 0
      vertex 3.53553 -7.93553 0
    endloop
  endfacet
  facet normal 0 0 -1
    outer loop
      vertex 1.91342 -9.0194 0
      vertex 1.91342 0.219398 0
      vertex 3.53553 -0.864466 0
    endloop
  endfacet
  facet normal 0 0 -1
    outer loop
      vertex 0 -9.4 0
      vertex 1.91342 0.219398 0
      vertex 1.91342 -9.0194 0
    endloop
  endfacet
  facet normal 0 0 -1
    outer loop
      vertex 0 -9.4 0
      vertex 0 0.599999 0
      vertex 1.91342 0.219398 0
    endloop
  endfacet
  facet normal 0 0 -1
    outer loop
      vertex -1.91342 -9.0194 0
      vertex 0 0.599999 0
      vertex 0 -9.4 0
    endloop
  endfacet
  facet normal 0 0 -1
    outer loop
      vertex -1.91342 -9.0194 0
      vertex -1.91342 0.219398 0
      vertex 0 0.599999 0
    endloop
  endfacet
  facet normal 0 0 -1
    outer loop
      vertex -3.53553 -7.93553 0
      vertex -1.91342 0.219398 0
      vertex -1.91342 -9.0194 0
    endloop
  endfacet
  facet normal 0 0 -1
    outer loop
      vertex -3.53553 -7.93553 0
      vertex -3.53553 -0.864466 0
      vertex -1.91342 0.219398 0
    endloop
  endfacet
  facet normal 0 0 -1
    outer loop
      vertex -4.6194 -6.31342 0
      vertex -3.53553 -0.864466 0
      vertex -3.53553 -7.93553 0
    endloop
  endfacet
  facet normal 0 0 -1
    outer loop
      vertex -4.6194 -6.31342 0
      vertex -4.6194 -2.48658 0
      vertex -3.53553 -0.864466 0
    endloop
  endfacet
  facet normal 0 -0 -1
    outer loop
      vertex -4.6194 -2.48658 0
      vertex -4.6194 -6.31342 0
      vertex -5 -4.4 0
    endloop
  endfacet
  facet normal -0.19509 0.980785 0
    outer loop
      vertex 0 0.599999 5.72205e-07
      vertex 0 0.599999 0
      vertex -1.80013 0.241931 5.72205e-07
    endloop
  endfacet
  facet normal -0.195075 0.980788 0
    outer loop
      vertex -1.80013 0.241931 5.72205e-07
      vertex -1.91342 0.219398 0
      vertex -1.91342 0.219398 0.0088709
    endloop
  endfacet
  facet normal -0.0643589 0.323556 0.944018
    outer loop
      vertex -1.91342 0.219398 0
      vertex -1.80013 0.241931 5.72205e-07
      vertex 0 0.599999 0
    endloop
  endfacet
  facet normal 0 0 1
    outer loop
      vertex 4.6194 -2.48658 0.5
      vertex 4.6194 -6.31342 0.5
      vertex 5 -4.4 0.5
    endloop
  endfacet
  facet normal 0 0 1
    outer loop
      vertex 3.53553 -0.864466 0.5
      vertex 4.6194 -6.31342 0.5
      vertex 4.6194 -2.48658 0.5
    endloop
  endfacet
  facet normal 0 0 1
    outer loop
      vertex 3.53553 -0.864466 0.5
      vertex 3.53553 -7.93553 0.5
      vertex 4.6194 -6.31342 0.5
    endloop
  endfacet
  facet normal 0 0 1
    outer loop
      vertex 1.94245 0.2 0.5
      vertex 3.53553 -7.93553 0.5
      vertex 3.53553 -0.864466 0.5
    endloop
  endfacet
  facet normal 0 0 1
    outer loop
      vertex 1.94245 0.2 0.5
      vertex 1.91342 -9.0194 0.5
      vertex 3.53553 -7.93553 0.5
    endloop
  endfacet
  facet normal 0 0 1
    outer loop
      vertex 1.94245 0.2 0.5
      vertex 0 -9.4 0.5
      vertex 1.91342 -9.0194 0.5
    endloop
  endfacet
  facet normal 0 0 1
    outer loop
      vertex 1.94245 0.2 0.5
      vertex -1.91342 -9.0194 0.5
      vertex 0 -9.4 0.5
    endloop
  endfacet
  facet normal -0 0 1
    outer loop
      vertex -1.94245 0.2 0.5
      vertex -1.91342 -9.0194 0.5
      vertex 1.94245 0.2 0.5
    endloop
  endfacet
  facet normal -0 0 1
    outer loop
      vertex -3.53553 -0.864466 0.5
      vertex -1.91342 -9.0194 0.5
      vertex -1.94245 0.2 0.5
    endloop
  endfacet
  facet normal 0 0 1
    outer loop
      vertex -3.53553 -0.864466 0.5
      vertex -3.53553 -7.93553 0.5
      vertex -1.91342 -9.0194 0.5
    endloop
  endfacet
  facet normal -0 0 1
    outer loop
      vertex -4.6194 -2.48658 0.5
      vertex -3.53553 -7.93553 0.5
      vertex -3.53553 -0.864466 0.5
    endloop
  endfacet
  facet normal 0 0 1
    outer loop
      vertex -4.6194 -2.48658 0.5
      vertex -4.6194 -6.31342 0.5
      vertex -3.53553 -7.93553 0.5
    endloop
  endfacet
  facet normal 0 -0 1
    outer loop
      vertex -4.6194 -6.31342 0.5
      vertex -4.6194 -2.48658 0.5
      vertex -5 -4.4 0.5
    endloop
  endfacet
  facet normal -0.980786 -0.195089 0
    outer loop
      vertex -4.6194 -6.31342 0
      vertex -5 -4.4 0.5
      vertex -5 -4.4 0
    endloop
  endfacet
  facet normal -0.980786 -0.195089 0
    outer loop
      vertex -5 -4.4 0.5
      vertex -4.6194 -6.31342 0
      vertex -4.6194 -6.31342 0.5
    endloop
  endfacet
  facet normal -0.555574 -0.831467 0
    outer loop
      vertex -3.53553 -7.93553 0
      vertex -1.91342 -9.0194 0.5
      vertex -3.53553 -7.93553 0.5
    endloop
  endfacet
  facet normal -0.555574 -0.831467 -0
    outer loop
      vertex -1.91342 -9.0194 0.5
      vertex -3.53553 -7.93553 0
      vertex -1.91342 -9.0194 0
    endloop
  endfacet
  facet normal -0.195089 0.980786 0
    outer loop
      vertex 0 59.4 0
      vertex -1.91342 59.0194 0.5
      vertex 0 59.4 0.5
    endloop
  endfacet
  facet normal -0.195089 0.980786 0
    outer loop
      vertex -1.91342 59.0194 0.5
      vertex 0 59.4 0
      vertex -1.91342 59.0194 0
    endloop
  endfacet
  facet normal 0.831465 0.555576 0
    outer loop
      vertex 4.6194 56.3134 0.5
      vertex 3.53553 57.9355 0
      vertex 3.53553 57.9355 0.5
    endloop
  endfacet
  facet normal 0.831465 0.555576 0
    outer loop
      vertex 3.53553 57.9355 0
      vertex 4.6194 56.3134 0.5
      vertex 4.6194 56.3134 0
    endloop
  endfacet
  facet normal 0.980785 0.195091 0
    outer loop
      vertex 5 54.4 0.5
      vertex 4.6194 56.3134 0
      vertex 4.6194 56.3134 0.5
    endloop
  endfacet
  facet normal 0.980785 0.195091 0
    outer loop
      vertex 4.6194 56.3134 0
      vertex 5 54.4 0.5
      vertex 5 54.4 0
    endloop
  endfacet
  facet normal 0.195107 -0.980782 0
    outer loop
      vertex 0 49.4 5.72205e-07
      vertex 0 49.4 0
      vertex 1.80013 49.7581 5.72205e-07
    endloop
  endfacet
  facet normal 0.194801 -0.980843 0
    outer loop
      vertex 1.80013 49.7581 5.72205e-07
      vertex 1.91342 49.7806 0
      vertex 1.91342 49.7806 0.00887089
    endloop
  endfacet
  facet normal 0.00328809 -0.0165305 0.999858
    outer loop
      vertex 1.91342 49.7806 0
      vertex 1.80013 49.7581 5.72205e-07
      vertex 0 49.4 0
    endloop
  endfacet
  facet normal 0 0 1
    outer loop
      vertex 4.6194 56.3134 0.5
      vertex 4.6194 52.4866 0.5
      vertex 5 54.4 0.5
    endloop
  endfacet
  facet normal 0 0 1
    outer loop
      vertex 3.53553 57.9355 0.5
      vertex 4.6194 52.4866 0.5
      vertex 4.6194 56.3134 0.5
    endloop
  endfacet
  facet normal 0 0 1
    outer loop
      vertex 3.53553 57.9355 0.5
      vertex 3.53553 50.8645 0.5
      vertex 4.6194 52.4866 0.5
    endloop
  endfacet
  facet normal 0 0 1
    outer loop
      vertex 3.53553 57.9355 0.5
      vertex 1.94245 49.8 0.5
      vertex 3.53553 50.8645 0.5
    endloop
  endfacet
  facet normal 0 0 1
    outer loop
      vertex 1.91342 59.0194 0.5
      vertex 1.94245 49.8 0.5
      vertex 3.53553 57.9355 0.5
    endloop
  endfacet
  facet normal 0 0 1
    outer loop
      vertex 0 59.4 0.5
      vertex 1.94245 49.8 0.5
      vertex 1.91342 59.0194 0.5
    endloop
  endfacet
  facet normal -0 0 1
    outer loop
      vertex -1.91342 59.0194 0.5
      vertex 1.94245 49.8 0.5
      vertex 0 59.4 0.5
    endloop
  endfacet
  facet normal 0 0 1
    outer loop
      vertex -1.91342 59.0194 0.5
      vertex -1.94245 49.8 0.5
      vertex 1.94245 49.8 0.5
    endloop
  endfacet
  facet normal -0 0 1
    outer loop
      vertex -3.53553 57.9355 0.5
      vertex -1.94245 49.8 0.5
      vertex -1.91342 59.0194 0.5
    endloop
  endfacet
  facet normal 0 0 1
    outer loop
      vertex -3.53553 57.9355 0.5
      vertex -3.53553 50.8645 0.5
      vertex -1.94245 49.8 0.5
    endloop
  endfacet
  facet normal -0 0 1
    outer loop
      vertex -4.6194 56.3134 0.5
      vertex -3.53553 50.8645 0.5
      vertex -3.53553 57.9355 0.5
    endloop
  endfacet
  facet normal 0 0 1
    outer loop
      vertex -4.6194 56.3134 0.5
      vertex -4.6194 52.4866 0.5
      vertex -3.53553 50.8645 0.5
    endloop
  endfacet
  facet normal 0 -0 1
    outer loop
      vertex -4.6194 52.4866 0.5
      vertex -4.6194 56.3134 0.5
      vertex -5 54.4 0.5
    endloop
  endfacet
  facet normal 0.555585 0.83146 -0
    outer loop
      vertex 3.53553 57.9355 0
      vertex 1.91342 59.0194 0.5
      vertex 3.53553 57.9355 0.5
    endloop
  endfacet
  facet normal 0.555585 0.83146 0
    outer loop
      vertex 1.91342 59.0194 0.5
      vertex 3.53553 57.9355 0
      vertex 1.91342 59.0194 0
    endloop
  endfacet
  facet normal 0.980785 -0.195091 0
    outer loop
      vertex 4.6194 52.4866 0.5
      vertex 5 54.4 0
      vertex 5 54.4 0.5
    endloop
  endfacet
  facet normal 0.980785 -0.195091 0
    outer loop
      vertex 5 54.4 0
      vertex 4.6194 52.4866 0.5
      vertex 4.6194 52.4866 0
    endloop
  endfacet
  facet normal -0.980785 0.195091 0
    outer loop
      vertex -5 54.4 0
      vertex -4.6194 56.3134 0.5
      vertex -4.6194 56.3134 0
    endloop
  endfacet
  facet normal -0.980785 0.195091 0
    outer loop
      vertex -4.6194 56.3134 0.5
      vertex -5 54.4 0
      vertex -5 54.4 0.5
    endloop
  endfacet
  facet normal -0.555585 0.83146 0
    outer loop
      vertex -1.91342 59.0194 0
      vertex -3.53553 57.9355 0.5
      vertex -1.91342 59.0194 0.5
    endloop
  endfacet
  facet normal -0.555585 0.83146 0
    outer loop
      vertex -3.53553 57.9355 0.5
      vertex -1.91342 59.0194 0
      vertex -3.53553 57.9355 0
    endloop
  endfacet
  facet normal -0.980785 -0.195091 0
    outer loop
      vertex -4.6194 52.4866 0
      vertex -5 54.4 0.5
      vertex -5 54.4 0
    endloop
  endfacet
  facet normal -0.980785 -0.195091 0
    outer loop
      vertex -5 54.4 0.5
      vertex -4.6194 52.4866 0
      vertex -4.6194 52.4866 0.5
    endloop
  endfacet
  facet normal 0.831465 -0.555576 0
    outer loop
      vertex 3.53553 50.8645 0.5
      vertex 4.6194 52.4866 0
      vertex 4.6194 52.4866 0.5
    endloop
  endfacet
  facet normal 0.831465 -0.555576 0
    outer loop
      vertex 4.6194 52.4866 0
      vertex 3.53553 50.8645 0.5
      vertex 3.53553 50.8645 0
    endloop
  endfacet
  facet normal 0.555584 -0.83146 0
    outer loop
      vertex 1.94245 49.8 0.0165068
      vertex 3.53553 50.8645 0.5
      vertex 1.94245 49.8 0.5
    endloop
  endfacet
  facet normal 0.555625 -0.831433 0
    outer loop
      vertex 1.91342 49.7806 0
      vertex 1.94245 49.8 0.0165068
      vertex 1.91342 49.7806 0.00887089
    endloop
  endfacet
  facet normal 0.555585 -0.83146 0.000103002
    outer loop
      vertex 3.53553 50.8645 0
      vertex 1.94245 49.8 0.0165068
      vertex 1.91342 49.7806 0
    endloop
  endfacet
  facet normal 0.555584 -0.83146 0
    outer loop
      vertex 1.94245 49.8 0.0165068
      vertex 3.53553 50.8645 0
      vertex 3.53553 50.8645 0.5
    endloop
  endfacet
  facet normal 0.195089 0.980786 -0
    outer loop
      vertex 1.91342 59.0194 0
      vertex 0 59.4 0.5
      vertex 1.91342 59.0194 0.5
    endloop
  endfacet
  facet normal 0.195089 0.980786 0
    outer loop
      vertex 0 59.4 0.5
      vertex 1.91342 59.0194 0
      vertex 0 59.4 0
    endloop
  endfacet
  facet normal -0.194801 -0.980843 0
    outer loop
      vertex -1.91342 49.7806 0
      vertex -1.80013 49.7581 5.72205e-07
      vertex -1.91342 49.7806 0.00887089
    endloop
  endfacet
  facet normal -0.00328809 -0.0165305 0.999858
    outer loop
      vertex 0 49.4 0
      vertex -1.80013 49.7581 5.72205e-07
      vertex -1.91342 49.7806 0
    endloop
  endfacet
  facet normal -0.195107 -0.980782 0
    outer loop
      vertex -1.80013 49.7581 5.72205e-07
      vertex 0 49.4 0
      vertex 0 49.4 5.72205e-07
    endloop
  endfacet
  facet normal -0.831465 0.555576 0
    outer loop
      vertex -4.6194 56.3134 0
      vertex -3.53553 57.9355 0.5
      vertex -3.53553 57.9355 0
    endloop
  endfacet
  facet normal -0.831465 0.555576 0
    outer loop
      vertex -3.53553 57.9355 0.5
      vertex -4.6194 56.3134 0
      vertex -4.6194 56.3134 0.5
    endloop
  endfacet
  facet normal -0.831465 -0.555576 0
    outer loop
      vertex -3.53553 50.8645 0
      vertex -4.6194 52.4866 0.5
      vertex -4.6194 52.4866 0
    endloop
  endfacet
  facet normal -0.831465 -0.555576 0
    outer loop
      vertex -4.6194 52.4866 0.5
      vertex -3.53553 50.8645 0
      vertex -3.53553 50.8645 0.5
    endloop
  endfacet
  facet normal 0 0 -1
    outer loop
      vertex 4.6194 52.4866 0
      vertex 4.6194 56.3134 0
      vertex 5 54.4 0
    endloop
  endfacet
  facet normal 0 0 -1
    outer loop
      vertex 3.53553 50.8645 0
      vertex 4.6194 56.3134 0
      vertex 4.6194 52.4866 0
    endloop
  endfacet
  facet normal 0 0 -1
    outer loop
      vertex 3.53553 50.8645 0
      vertex 3.53553 57.9355 0
      vertex 4.6194 56.3134 0
    endloop
  endfacet
  facet normal 0 0 -1
    outer loop
      vertex 1.91342 49.7806 0
      vertex 3.53553 57.9355 0
      vertex 3.53553 50.8645 0
    endloop
  endfacet
  facet normal 0 0 -1
    outer loop
      vertex 1.91342 49.7806 0
      vertex 1.91342 59.0194 0
      vertex 3.53553 57.9355 0
    endloop
  endfacet
  facet normal 0 0 -1
    outer loop
      vertex 0 49.4 0
      vertex 1.91342 59.0194 0
      vertex 1.91342 49.7806 0
    endloop
  endfacet
  facet normal 0 0 -1
    outer loop
      vertex 0 49.4 0
      vertex 0 59.4 0
      vertex 1.91342 59.0194 0
    endloop
  endfacet
  facet normal 0 0 -1
    outer loop
      vertex -1.91342 49.7806 0
      vertex 0 59.4 0
      vertex 0 49.4 0
    endloop
  endfacet
  facet normal 0 0 -1
    outer loop
      vertex -1.91342 49.7806 0
      vertex -1.91342 59.0194 0
      vertex 0 59.4 0
    endloop
  endfacet
  facet normal 0 0 -1
    outer loop
      vertex -3.53553 50.8645 0
      vertex -1.91342 59.0194 0
      vertex -1.91342 49.7806 0
    endloop
  endfacet
  facet normal 0 0 -1
    outer loop
      vertex -3.53553 50.8645 0
      vertex -3.53553 57.9355 0
      vertex -1.91342 59.0194 0
    endloop
  endfacet
  facet normal 0 0 -1
    outer loop
      vertex -4.6194 52.4866 0
      vertex -3.53553 57.9355 0
      vertex -3.53553 50.8645 0
    endloop
  endfacet
  facet normal 0 0 -1
    outer loop
      vertex -4.6194 52.4866 0
      vertex -4.6194 56.3134 0
      vertex -3.53553 57.9355 0
    endloop
  endfacet
  facet normal 0 -0 -1
    outer loop
      vertex -4.6194 56.3134 0
      vertex -4.6194 52.4866 0
      vertex -5 54.4 0
    endloop
  endfacet
  facet normal -0.555584 -0.83146 0
    outer loop
      vertex -3.53553 50.8645 0.5
      vertex -1.94245 49.8 0.0165068
      vertex -1.94245 49.8 0.5
    endloop
  endfacet
  facet normal -0.555584 -0.83146 0
    outer loop
      vertex -3.53553 50.8645 0
      vertex -1.94245 49.8 0.0165068
      vertex -3.53553 50.8645 0.5
    endloop
  endfacet
  facet normal -0.555585 -0.83146 0.000103002
    outer loop
      vertex -1.91342 49.7806 0
      vertex -1.94245 49.8 0.0165068
      vertex -3.53553 50.8645 0
    endloop
  endfacet
  facet normal -0.555625 -0.831433 0
    outer loop
      vertex -1.94245 49.8 0.0165068
      vertex -1.91342 49.7806 0
      vertex -1.91342 49.7806 0.00887089
    endloop
  endfacet
endsolid OpenSCAD_Model
