solid OpenSCAD_Model
  facet normal 0.0633701 -0.966586 0.248386
    outer loop
      vertex -0.633054 -24.9696 5
      vertex -0.652634 -25.7418 2
      vertex 1.25527 -24.8458 5
    endloop
  endfacet
  facet normal -0.312153 -0.919548 0.238729
    outer loop
      vertex -0.633054 -24.9696 5
      vertex -2.425 -24.3613 5
      vertex -0.652634 -25.7418 2
    endloop
  endfacet
  facet normal 0.0633555 -0.966585 0.248395
    outer loop
      vertex 1.25527 -24.8458 5
      vertex -0.652634 -25.7418 2
      vertex 1.2941 -25.6142 2
    endloop
  endfacet
  facet normal 0.371982 -0.898044 0.234834
    outer loop
      vertex 2.5 -25.1147 2
      vertex 1.25527 -24.8458 5
      vertex 1.2941 -25.6142 2
    endloop
  endfacet
  facet normal -0.371982 0.898044 0.234834
    outer loop
      vertex -1.2941 25.6142 2
      vertex -2.5 25.1147 2
      vertex -1.25527 24.8458 5
    endloop
  endfacet
  facet normal 0.952423 0.189449 0.238747
    outer loop
      vertex 22.6194 12.3057 2
      vertex 21.9408 11.9366 5
      vertex 23 10.3923 2
    endloop
  endfacet
  facet normal 0.868774 -0.428398 0.248407
    outer loop
      vertex 22.1447 -11.3358 5
      vertex 21.3078 -13.033 5
      vertex 22.8296 -11.6864 2
    endloop
  endfacet
  facet normal 0.952423 0.189448 0.238747
    outer loop
      vertex 23 10.3923 2
      vertex 21.9408 11.9366 5
      vertex 22.31 10.0805 5
    endloop
  endfacet
  facet normal 0.487278 0.843993 0.224137
    outer loop
      vertex 2.5 25.1147 2
      vertex 2.425 24.3613 5
      vertex 19.885 14.2808 5
    endloop
  endfacet
  facet normal 0.974555 -0 0.224148
    outer loop
      vertex 22.31 -10.0805 5
      vertex 23 10.3923 2
      vertex 22.31 10.0805 5
    endloop
  endfacet
  facet normal 0.974555 0 0.224148
    outer loop
      vertex 23 10.3923 2
      vertex 22.31 -10.0805 5
      vertex 23 -10.3923 2
    endloop
  endfacet
  facet normal 0.48728 0.843994 0.224128
    outer loop
      vertex 20.5 14.7224 2
      vertex 2.5 25.1147 2
      vertex 19.885 14.2808 5
    endloop
  endfacet
  facet normal -0.0633701 0.966586 0.248386
    outer loop
      vertex 0.652634 25.7418 2
      vertex -1.25527 24.8458 5
      vertex 0.633054 24.9696 5
    endloop
  endfacet
  facet normal 0.868773 -0.428403 0.248404
    outer loop
      vertex 22.8296 -11.6864 2
      vertex 21.3078 -13.033 5
      vertex 21.9668 -13.4361 2
    endloop
  endfacet
  facet normal -0.312147 -0.919549 0.238733
    outer loop
      vertex -2.425 -24.3613 5
      vertex -2.5 -25.1147 2
      vertex -0.652634 -25.7418 2
    endloop
  endfacet
  facet normal -0.487274 -0.84399 0.224155
    outer loop
      vertex -15.0998 -17.2628 4.17426
      vertex -16.1 -17.2628 2
      vertex -2.5 -25.1147 2
    endloop
  endfacet
  facet normal -0 0 1
    outer loop
      vertex 12.9038 -7.45 5
      vertex 22.31 -10.0805 5
      vertex 22.31 10.0805 5
    endloop
  endfacet
  facet normal 0 0 1
    outer loop
      vertex 19.885 14.2808 5
      vertex 22.31 10.0805 5
      vertex 21.9408 11.9366 5
    endloop
  endfacet
  facet normal 0 0 1
    outer loop
      vertex 12.9038 -7.45 5
      vertex 22.31 10.0805 5
      vertex 12.9038 7.45 5
    endloop
  endfacet
  facet normal 0 0 1
    outer loop
      vertex 19.885 14.2808 5
      vertex 21.9408 11.9366 5
      vertex 20.8895 13.51 5
    endloop
  endfacet
  facet normal 0 0 1
    outer loop
      vertex 22.31 10.0805 5
      vertex 19.885 14.2808 5
      vertex 12.9038 7.45 5
    endloop
  endfacet
  facet normal 0 -0 1
    outer loop
      vertex 19.885 -14.2808 5
      vertex 22.31 -10.0805 5
      vertex 12.9038 -7.45 5
    endloop
  endfacet
  facet normal 0 0 1
    outer loop
      vertex 22.31 -10.0805 5
      vertex 19.885 -14.2808 5
      vertex 22.1447 -11.3358 5
    endloop
  endfacet
  facet normal 0 0 1
    outer loop
      vertex 2.425 24.3613 5
      vertex 12.9038 7.45 5
      vertex 19.885 14.2808 5
    endloop
  endfacet
  facet normal 0 0 1
    outer loop
      vertex -2.425 24.3613 5
      vertex 2.425 24.3613 5
      vertex 0.633054 24.9696 5
    endloop
  endfacet
  facet normal 0 0 1
    outer loop
      vertex 2.425 24.3613 5
      vertex 0 14.9 5
      vertex 12.9038 7.45 5
    endloop
  endfacet
  facet normal 0 0 1
    outer loop
      vertex -2.425 24.3613 5
      vertex 0.633054 24.9696 5
      vertex -1.25527 24.8458 5
    endloop
  endfacet
  facet normal 0 0 1
    outer loop
      vertex 2.425 24.3613 5
      vertex -2.425 24.3613 5
      vertex 0 14.9 5
    endloop
  endfacet
  facet normal -0 0 1
    outer loop
      vertex -14.72 17.2628 5
      vertex 0 14.9 5
      vertex -2.425 24.3613 5
    endloop
  endfacet
  facet normal -0 0 1
    outer loop
      vertex -28.1 17.2628 5
      vertex -12.9038 7.45 5
      vertex -14.72 17.2628 5
    endloop
  endfacet
  facet normal 0 0 1
    outer loop
      vertex 0 14.9 5
      vertex -14.72 17.2628 5
      vertex -12.9038 7.45 5
    endloop
  endfacet
  facet normal 0 0 1
    outer loop
      vertex 22.1447 -11.3358 5
      vertex 19.885 -14.2808 5
      vertex 21.3078 -13.033 5
    endloop
  endfacet
  facet normal 0 0 1
    outer loop
      vertex 12.9038 -7.45 5
      vertex 2.425 -24.3613 5
      vertex 19.885 -14.2808 5
    endloop
  endfacet
  facet normal -0 0 1
    outer loop
      vertex 0 -14.9 5
      vertex 2.425 -24.3613 5
      vertex 12.9038 -7.45 5
    endloop
  endfacet
  facet normal 0 0 1
    outer loop
      vertex -2.425 -24.3613 5
      vertex 2.425 -24.3613 5
      vertex 0 -14.9 5
    endloop
  endfacet
  facet normal 0 0 1
    outer loop
      vertex 2.425 -24.3613 5
      vertex -2.425 -24.3613 5
      vertex 1.25527 -24.8458 5
    endloop
  endfacet
  facet normal 0 0 1
    outer loop
      vertex 1.25527 -24.8458 5
      vertex -2.425 -24.3613 5
      vertex -0.633054 -24.9696 5
    endloop
  endfacet
  facet normal 0 0 1
    outer loop
      vertex -14.72 -17.2628 5
      vertex 0 -14.9 5
      vertex -12.9038 -7.45 5
    endloop
  endfacet
  facet normal 0 0 1
    outer loop
      vertex 0 -14.9 5
      vertex -14.72 -17.2628 5
      vertex -2.425 -24.3613 5
    endloop
  endfacet
  facet normal -0 0 1
    outer loop
      vertex -42 9.01696 5
      vertex -12.9038 7.45 5
      vertex -28.1 17.2628 5
    endloop
  endfacet
  facet normal 0 0 1
    outer loop
      vertex -12.9038 7.45 5
      vertex -42 9.01696 5
      vertex -12.9038 -7.45 5
    endloop
  endfacet
  facet normal 0 0 1
    outer loop
      vertex -12.9038 -7.45 5
      vertex -28.1 -17.2628 5
      vertex -14.72 -17.2628 5
    endloop
  endfacet
  facet normal 0 0 1
    outer loop
      vertex -42 -9.01696 5
      vertex -12.9038 -7.45 5
      vertex -42 9.01696 5
    endloop
  endfacet
  facet normal 0 0 1
    outer loop
      vertex -12.9038 -7.45 5
      vertex -42 -9.01696 5
      vertex -28.1 -17.2628 5
    endloop
  endfacet
  facet normal -0 0 1
    outer loop
      vertex -45.4 7 5
      vertex -45.2 -7.11864 5
      vertex -45.2 7.11864 5
    endloop
  endfacet
  facet normal 0 0 1
    outer loop
      vertex -45.4 7 5
      vertex -45.4 -7 5
      vertex -45.2 -7.11864 5
    endloop
  endfacet
  facet normal 0 0 1
    outer loop
      vertex -48.8 4 5
      vertex -45.4 7 5
      vertex -45.8 7 5
    endloop
  endfacet
  facet normal 0 0 1
    outer loop
      vertex -45.4 7 5
      vertex -48.8 4 5
      vertex -45.4 -7 5
    endloop
  endfacet
  facet normal 0 0 1
    outer loop
      vertex -45.4 -7 5
      vertex -48.8 -4 5
      vertex -45.8 -7 5
    endloop
  endfacet
  facet normal 0 0 1
    outer loop
      vertex -48.8 4 5
      vertex -45.8 7 5
      vertex -48.227 5.76335 5
    endloop
  endfacet
  facet normal 0 0 1
    outer loop
      vertex -45.4 -7 5
      vertex -48.8 4 5
      vertex -48.8 -4 5
    endloop
  endfacet
  facet normal 0 0 1
    outer loop
      vertex -45.8 -7 5
      vertex -48.8 -4 5
      vertex -47.5633 -6.42705 5
    endloop
  endfacet
  facet normal 0 0 -1
    outer loop
      vertex -2.5 -25.1147 2
      vertex -16.1 -17.2628 2
      vertex -11 -17.2628 2
    endloop
  endfacet
  facet normal 0 0 -1
    outer loop
      vertex 20.5 -14.7224 2
      vertex 23 -10.3923 2
      vertex 22.8296 -11.6864 2
    endloop
  endfacet
  facet normal 0 0 -1
    outer loop
      vertex 23 -10.3923 2
      vertex 12.9038 -7.45 2
      vertex 23 10.3923 2
    endloop
  endfacet
  facet normal 0 0 -1
    outer loop
      vertex 20.5 -14.7224 2
      vertex 22.8296 -11.6864 2
      vertex 21.9668 -13.4361 2
    endloop
  endfacet
  facet normal 0 0 -1
    outer loop
      vertex 23 10.3923 2
      vertex 12.9038 -7.45 2
      vertex 12.9038 7.45 2
    endloop
  endfacet
  facet normal -0 0 -1
    outer loop
      vertex 23 -10.3923 2
      vertex 20.5 -14.7224 2
      vertex 12.9038 -7.45 2
    endloop
  endfacet
  facet normal 0 -0 -1
    outer loop
      vertex 20.5 14.7224 2
      vertex 23 10.3923 2
      vertex 12.9038 7.45 2
    endloop
  endfacet
  facet normal 0 0 -1
    outer loop
      vertex 23 10.3923 2
      vertex 20.5 14.7224 2
      vertex 22.6194 12.3057 2
    endloop
  endfacet
  facet normal 0 0 -1
    outer loop
      vertex 2.5 -25.1147 2
      vertex 12.9038 -7.45 2
      vertex 20.5 -14.7224 2
    endloop
  endfacet
  facet normal 0 0 -1
    outer loop
      vertex -2.5 -25.1147 2
      vertex 2.5 -25.1147 2
      vertex 1.2941 -25.6142 2
    endloop
  endfacet
  facet normal 0 0 -1
    outer loop
      vertex 2.5 -25.1147 2
      vertex 0 -14.9 2
      vertex 12.9038 -7.45 2
    endloop
  endfacet
  facet normal 0 0 -1
    outer loop
      vertex -2.5 -25.1147 2
      vertex 1.2941 -25.6142 2
      vertex -0.652634 -25.7418 2
    endloop
  endfacet
  facet normal 0 0 -1
    outer loop
      vertex 2.5 -25.1147 2
      vertex -2.5 -25.1147 2
      vertex 0 -14.9 2
    endloop
  endfacet
  facet normal 0 0 -1
    outer loop
      vertex -11 -17.2628 2
      vertex 0 -14.9 2
      vertex -2.5 -25.1147 2
    endloop
  endfacet
  facet normal 0 0 -1
    outer loop
      vertex -11 -11.2387 2
      vertex 0 -14.9 2
      vertex -11 -17.2628 2
    endloop
  endfacet
  facet normal 0 0 -1
    outer loop
      vertex -11 -11.2387 2
      vertex -12.9038 -7.45 2
      vertex 0 -14.9 2
    endloop
  endfacet
  facet normal -0 0 -1
    outer loop
      vertex -12.9038 -7.45 2
      vertex -15.233 -8.79478 2
      vertex -12.9038 7.45 2
    endloop
  endfacet
  facet normal 0 0 -1
    outer loop
      vertex -15.233 -8.79478 2
      vertex -12.9038 -7.45 2
      vertex -11 -11.2387 2
    endloop
  endfacet
  facet normal 0 0 -1
    outer loop
      vertex 22.6194 12.3057 2
      vertex 20.5 14.7224 2
      vertex 21.5355 13.9278 2
    endloop
  endfacet
  facet normal 0 0 -1
    outer loop
      vertex 12.9038 7.45 2
      vertex 2.5 25.1147 2
      vertex 20.5 14.7224 2
    endloop
  endfacet
  facet normal 0 0 -1
    outer loop
      vertex 0 14.9 2
      vertex 2.5 25.1147 2
      vertex 12.9038 7.45 2
    endloop
  endfacet
  facet normal 0 0 -1
    outer loop
      vertex -2.5 25.1147 2
      vertex 2.5 25.1147 2
      vertex 0 14.9 2
    endloop
  endfacet
  facet normal 0 0 -1
    outer loop
      vertex 2.5 25.1147 2
      vertex -2.5 25.1147 2
      vertex 0.652634 25.7418 2
    endloop
  endfacet
  facet normal 0 0 -1
    outer loop
      vertex 0.652634 25.7418 2
      vertex -2.5 25.1147 2
      vertex -1.2941 25.6142 2
    endloop
  endfacet
  facet normal 0 0 -1
    outer loop
      vertex -11 17.2628 2
      vertex 0 14.9 2
      vertex -11 11.2387 2
    endloop
  endfacet
  facet normal 0 0 -1
    outer loop
      vertex -12.9038 7.45 2
      vertex -11 11.2387 2
      vertex 0 14.9 2
    endloop
  endfacet
  facet normal 0 0 -1
    outer loop
      vertex -12.9038 7.45 2
      vertex -15.233 8.79478 2
      vertex -11 11.2387 2
    endloop
  endfacet
  facet normal 0 0 -1
    outer loop
      vertex -15.233 8.79478 2
      vertex -12.9038 7.45 2
      vertex -15.233 -8.79478 2
    endloop
  endfacet
  facet normal 0 0 -1
    outer loop
      vertex 0 14.9 2
      vertex -11 17.2628 2
      vertex -2.5 25.1147 2
    endloop
  endfacet
  facet normal 0 0 -1
    outer loop
      vertex -2.5 25.1147 2
      vertex -11 17.2628 2
      vertex -16.1 17.2628 2
    endloop
  endfacet
  facet normal 0.805416 0.538156 0.24838
    outer loop
      vertex 21.5355 13.9278 2
      vertex 20.8895 13.51 5
      vertex 21.9408 11.9366 5
    endloop
  endfacet
  facet normal 0.640293 -0.730092 0.238729
    outer loop
      vertex 21.3078 -13.033 5
      vertex 19.885 -14.2808 5
      vertex 20.5 -14.7224 2
    endloop
  endfacet
  facet normal -0.487278 0.843992 0.224137
    outer loop
      vertex -2.5 25.1147 2
      vertex -14.72 17.2628 5
      vertex -2.425 24.3613 5
    endloop
  endfacet
  facet normal -0.487281 0.843993 0.224125
    outer loop
      vertex -14.72 17.2628 5
      vertex -2.5 25.1147 2
      vertex -15.0998 17.2628 4.17426
    endloop
  endfacet
  facet normal 0.591755 0.771158 0.234821
    outer loop
      vertex 21.5355 13.9278 2
      vertex 20.5 14.7224 2
      vertex 20.8895 13.51 5
    endloop
  endfacet
  facet normal 0.312153 0.919548 0.238729
    outer loop
      vertex 0.652634 25.7418 2
      vertex 0.633054 24.9696 5
      vertex 2.425 24.3613 5
    endloop
  endfacet
  facet normal -0.487281 -0.843993 0.224125
    outer loop
      vertex -2.5 -25.1147 2
      vertex -14.72 -17.2628 5
      vertex -15.0998 -17.2628 4.17426
    endloop
  endfacet
  facet normal -0.487278 -0.843992 0.224137
    outer loop
      vertex -14.72 -17.2628 5
      vertex -2.5 -25.1147 2
      vertex -2.425 -24.3613 5
    endloop
  endfacet
  facet normal 0.312147 0.919549 0.238733
    outer loop
      vertex 2.5 25.1147 2
      vertex 0.652634 25.7418 2
      vertex 2.425 24.3613 5
    endloop
  endfacet
  facet normal -0.487274 0.84399 0.224155
    outer loop
      vertex -2.5 25.1147 2
      vertex -16.1 17.2628 2
      vertex -15.0998 17.2628 4.17426
    endloop
  endfacet
  facet normal 0.963715 -0.126897 0.234843
    outer loop
      vertex 23 -10.3923 2
      vertex 22.31 -10.0805 5
      vertex 22.8296 -11.6864 2
    endloop
  endfacet
  facet normal -0.37197 0.89805 0.234829
    outer loop
      vertex -1.25527 24.8458 5
      vertex -2.5 25.1147 2
      vertex -2.425 24.3613 5
    endloop
  endfacet
  facet normal -0.0633555 0.966585 0.248395
    outer loop
      vertex 0.652634 25.7418 2
      vertex -1.2941 25.6142 2
      vertex -1.25527 24.8458 5
    endloop
  endfacet
  facet normal 0.487278 -0.843993 0.224137
    outer loop
      vertex 19.885 -14.2808 5
      vertex 2.425 -24.3613 5
      vertex 2.5 -25.1147 2
    endloop
  endfacet
  facet normal 0.963713 -0.126903 0.234846
    outer loop
      vertex 22.31 -10.0805 5
      vertex 22.1447 -11.3358 5
      vertex 22.8296 -11.6864 2
    endloop
  endfacet
  facet normal 0.8054 0.538174 0.248395
    outer loop
      vertex 22.6194 12.3057 2
      vertex 21.5355 13.9278 2
      vertex 21.9408 11.9366 5
    endloop
  endfacet
  facet normal 0.48728 -0.843994 0.224128
    outer loop
      vertex 19.885 -14.2808 5
      vertex 2.5 -25.1147 2
      vertex 20.5 -14.7224 2
    endloop
  endfacet
  facet normal 0.640265 -0.73011 0.238747
    outer loop
      vertex 21.3078 -13.033 5
      vertex 20.5 -14.7224 2
      vertex 21.9668 -13.4361 2
    endloop
  endfacet
  facet normal 0.591749 0.771162 0.234824
    outer loop
      vertex 20.5 14.7224 2
      vertex 19.885 14.2808 5
      vertex 20.8895 13.51 5
    endloop
  endfacet
  facet normal 0.37197 -0.89805 0.234829
    outer loop
      vertex 2.425 -24.3613 5
      vertex 1.25527 -24.8458 5
      vertex 2.5 -25.1147 2
    endloop
  endfacet
  facet normal 1 -0 0
    outer loop
      vertex -12.9038 -7.45 5
      vertex -12.9038 7.45 2
      vertex -12.9038 7.45 5
    endloop
  endfacet
  facet normal 1 0 0
    outer loop
      vertex -12.9038 7.45 2
      vertex -12.9038 -7.45 5
      vertex -12.9038 -7.45 2
    endloop
  endfacet
  facet normal -1 0 0
    outer loop
      vertex 12.9038 -7.45 2
      vertex 12.9038 7.45 5
      vertex 12.9038 7.45 2
    endloop
  endfacet
  facet normal -1 -0 0
    outer loop
      vertex 12.9038 7.45 5
      vertex 12.9038 -7.45 2
      vertex 12.9038 -7.45 5
    endloop
  endfacet
  facet normal 0.499999 0.866026 -0
    outer loop
      vertex 0 -14.9 2
      vertex -12.9038 -7.45 5
      vertex 0 -14.9 5
    endloop
  endfacet
  facet normal 0.499999 0.866026 0
    outer loop
      vertex -12.9038 -7.45 5
      vertex 0 -14.9 2
      vertex -12.9038 -7.45 2
    endloop
  endfacet
  facet normal -0.499999 0.866026 0
    outer loop
      vertex 12.9038 -7.45 2
      vertex 0 -14.9 5
      vertex 12.9038 -7.45 5
    endloop
  endfacet
  facet normal -0.499999 0.866026 0
    outer loop
      vertex 0 -14.9 5
      vertex 12.9038 -7.45 2
      vertex 0 -14.9 2
    endloop
  endfacet
  facet normal 0.499999 -0.866026 0
    outer loop
      vertex -12.9038 7.45 2
      vertex 0 14.9 5
      vertex -12.9038 7.45 5
    endloop
  endfacet
  facet normal 0.499999 -0.866026 0
    outer loop
      vertex 0 14.9 5
      vertex -12.9038 7.45 2
      vertex 0 14.9 2
    endloop
  endfacet
  facet normal -0.499999 -0.866026 0
    outer loop
      vertex 0 14.9 2
      vertex 12.9038 7.45 5
      vertex 0 14.9 5
    endloop
  endfacet
  facet normal -0.499999 -0.866026 -0
    outer loop
      vertex 12.9038 7.45 5
      vertex 0 14.9 2
      vertex 12.9038 7.45 2
    endloop
  endfacet
  facet normal -0.8074 -0.41141 -0.422904
    outer loop
      vertex -47.5633 -6.42705 3
      vertex -48.8 -4 3
      vertex -45.7 -7 0
    endloop
  endfacet
  facet normal 0 0 -1
    outer loop
      vertex -28.1 -17.2628 0
      vertex -27.1 17.2628 0
      vertex -27.1 -17.2628 0
    endloop
  endfacet
  facet normal 0 0 -1
    outer loop
      vertex -28.1 -17.2628 0
      vertex -28.1 17.2628 0
      vertex -27.1 17.2628 0
    endloop
  endfacet
  facet normal 0 0 -1
    outer loop
      vertex -45.4 -7 0
      vertex -28.1 17.2628 0
      vertex -28.1 -17.2628 0
    endloop
  endfacet
  facet normal 0 0 -1
    outer loop
      vertex -45.4 -7 0
      vertex -45.4 7 0
      vertex -28.1 17.2628 0
    endloop
  endfacet
  facet normal 0 0 -1
    outer loop
      vertex -45.7 -7 0
      vertex -45.4 7 0
      vertex -45.4 -7 0
    endloop
  endfacet
  facet normal -0 0 -1
    outer loop
      vertex -45.4 7 0
      vertex -45.7 -7 0
      vertex -45.7 7 0
    endloop
  endfacet
  facet normal -0.788748 0.256303 -0.558736
    outer loop
      vertex -45.7 7 0
      vertex -48.8 4 3
      vertex -48.227 5.76335 3
    endloop
  endfacet
  facet normal -0.890998 -0.454007 0
    outer loop
      vertex -47.5633 -6.42705 3
      vertex -48.8 -4 5
      vertex -48.8 -4 3
    endloop
  endfacet
  facet normal -0.890998 -0.454007 0
    outer loop
      vertex -48.8 -4 5
      vertex -47.5633 -6.42705 3
      vertex -47.5633 -6.42705 5
    endloop
  endfacet
  facet normal -0.695421 0 -0.718602
    outer loop
      vertex -48.8 -4 3
      vertex -45.7 7 0
      vertex -45.7 -7 0
    endloop
  endfacet
  facet normal -0.695421 0 -0.718602
    outer loop
      vertex -45.7 7 0
      vertex -48.8 -4 3
      vertex -48.8 4 3
    endloop
  endfacet
  facet normal 0 1 0
    outer loop
      vertex -45.4 7 5
      vertex -45.8 7 3
      vertex -45.8 7 5
    endloop
  endfacet
  facet normal 0 1 -0
    outer loop
      vertex -45.4 7 0
      vertex -45.8 7 3
      vertex -45.4 7 5
    endloop
  endfacet
  facet normal 0 1 0
    outer loop
      vertex -45.8 7 3
      vertex -45.4 7 0
      vertex -45.7 7 0
    endloop
  endfacet
  facet normal -0.454 0.891002 0
    outer loop
      vertex -45.8 7 3
      vertex -48.227 5.76335 5
      vertex -45.8 7 5
    endloop
  endfacet
  facet normal -0.454 0.891002 0
    outer loop
      vertex -48.227 5.76335 5
      vertex -45.8 7 3
      vertex -48.227 5.76335 3
    endloop
  endfacet
  facet normal -0.453948 0.8909 -0.0151316
    outer loop
      vertex -45.7 7 0
      vertex -48.227 5.76335 3
      vertex -45.8 7 3
    endloop
  endfacet
  facet normal -0.309026 -0.951053 0
    outer loop
      vertex -47.5633 -6.42705 3
      vertex -45.8 -7 5
      vertex -47.5633 -6.42705 5
    endloop
  endfacet
  facet normal -0.309026 -0.951053 -0
    outer loop
      vertex -45.8 -7 5
      vertex -47.5633 -6.42705 3
      vertex -45.8 -7 3
    endloop
  endfacet
  facet normal -0.30901 -0.951003 -0.0103003
    outer loop
      vertex -45.8 -7 3
      vertex -47.5633 -6.42705 3
      vertex -45.7 -7 0
    endloop
  endfacet
  facet normal -0.951048 0.309043 0
    outer loop
      vertex -48.8 4 3
      vertex -48.227 5.76335 5
      vertex -48.227 5.76335 3
    endloop
  endfacet
  facet normal -0.951048 0.309043 0
    outer loop
      vertex -48.227 5.76335 5
      vertex -48.8 4 3
      vertex -48.8 4 5
    endloop
  endfacet
  facet normal -1 0 0
    outer loop
      vertex -48.8 -4 3
      vertex -48.8 4 5
      vertex -48.8 4 3
    endloop
  endfacet
  facet normal -1 -0 0
    outer loop
      vertex -48.8 4 5
      vertex -48.8 -4 3
      vertex -48.8 -4 5
    endloop
  endfacet
  facet normal 0 -1 0
    outer loop
      vertex -45.8 -7 3
      vertex -45.4 -7 5
      vertex -45.8 -7 5
    endloop
  endfacet
  facet normal 0 -1 0
    outer loop
      vertex -45.4 -7 0
      vertex -45.8 -7 3
      vertex -45.7 -7 0
    endloop
  endfacet
  facet normal 0 -1 0
    outer loop
      vertex -45.8 -7 3
      vertex -45.4 -7 0
      vertex -45.4 -7 5
    endloop
  endfacet
  facet normal -0.510189 -0.860062 0
    outer loop
      vertex -45.4 -7 5
      vertex -45.2 -7.11864 3
      vertex -45.2 -7.11864 5
    endloop
  endfacet
  facet normal -0.510204 -0.860053 1.3491e-06
    outer loop
      vertex -45.2 -7.11864 3
      vertex -45.4 -7 0
      vertex -43.5 -8.12712 3
    endloop
  endfacet
  facet normal -0.510189 -0.860062 0
    outer loop
      vertex -45.4 -7 0
      vertex -45.2 -7.11864 3
      vertex -45.4 -7 5
    endloop
  endfacet
  facet normal -0.510205 -0.860053 0
    outer loop
      vertex -42 -9.01696 4.5
      vertex -28.1 -17.2628 5
      vertex -42 -9.01696 5
    endloop
  endfacet
  facet normal -0.510206 -0.860052 -4.98581e-07
    outer loop
      vertex -28.1 -17.2628 0
      vertex -42 -9.01696 4.5
      vertex -43.5 -8.12712 3
    endloop
  endfacet
  facet normal -0.510205 -0.860053 2.38627e-06
    outer loop
      vertex -28.1 -17.2628 0
      vertex -43.5 -8.12712 3
      vertex -45.4 -7 0
    endloop
  endfacet
  facet normal -0.510205 -0.860053 0
    outer loop
      vertex -42 -9.01696 4.5
      vertex -28.1 -17.2628 0
      vertex -28.1 -17.2628 5
    endloop
  endfacet
  facet normal 0 -1 0
    outer loop
      vertex -28.1 -17.2628 5
      vertex -15.0998 -17.2628 4.17426
      vertex -14.72 -17.2628 5
    endloop
  endfacet
  facet normal 0 -1 0
    outer loop
      vertex -28.1 -17.2628 5
      vertex -16.1 -17.2628 2
      vertex -15.0998 -17.2628 4.17426
    endloop
  endfacet
  facet normal 0 -1 0
    outer loop
      vertex -27.1 -17.2628 0
      vertex -28.1 -17.2628 5
      vertex -28.1 -17.2628 0
    endloop
  endfacet
  facet normal 0 -1 0
    outer loop
      vertex -28.1 -17.2628 5
      vertex -27.1 -17.2628 0
      vertex -16.1 -17.2628 2
    endloop
  endfacet
  facet normal 0 -1 -0
    outer loop
      vertex -16.1 -17.2628 2
      vertex -27.1 -17.2628 0
      vertex -11 -17.2628 2
    endloop
  endfacet
  facet normal -0.510205 0.860053 0
    outer loop
      vertex -28.1 17.2628 5
      vertex -42 9.01696 4.5
      vertex -42 9.01696 5
    endloop
  endfacet
  facet normal -0.510205 0.860053 0
    outer loop
      vertex -28.1 17.2628 0
      vertex -42 9.01696 4.5
      vertex -28.1 17.2628 5
    endloop
  endfacet
  facet normal -0.510205 0.860053 2.38627e-06
    outer loop
      vertex -45.4 7 0
      vertex -43.5 8.12712 3
      vertex -28.1 17.2628 0
    endloop
  endfacet
  facet normal -0.510206 0.860052 -4.98581e-07
    outer loop
      vertex -42 9.01696 4.5
      vertex -28.1 17.2628 0
      vertex -43.5 8.12712 3
    endloop
  endfacet
  facet normal -0.510189 0.860062 0
    outer loop
      vertex -45.2 7.11864 3
      vertex -45.4 7 5
      vertex -45.2 7.11864 5
    endloop
  endfacet
  facet normal -0.510189 0.860062 0
    outer loop
      vertex -45.2 7.11864 3
      vertex -45.4 7 0
      vertex -45.4 7 5
    endloop
  endfacet
  facet normal -0.510204 0.860053 1.3491e-06
    outer loop
      vertex -43.5 8.12712 3
      vertex -45.4 7 0
      vertex -45.2 7.11864 3
    endloop
  endfacet
  facet normal 0.123276 0 -0.992372
    outer loop
      vertex -11 -17.2628 2
      vertex -15.233 -8.79478 1.47416
      vertex -11 -11.2387 2
    endloop
  endfacet
  facet normal 0.123276 0 -0.992372
    outer loop
      vertex -15.233 -8.79478 1.47416
      vertex -27.1 -17.2628 0
      vertex -15.233 8.79478 1.47416
    endloop
  endfacet
  facet normal 0.123276 -1.74694e-07 -0.992372
    outer loop
      vertex -27.1 -17.2628 0
      vertex -15.233 -8.79478 1.47416
      vertex -11 -17.2628 2
    endloop
  endfacet
  facet normal 0.123276 0 -0.992372
    outer loop
      vertex -15.233 8.79478 1.47416
      vertex -11 17.2628 2
      vertex -11 11.2387 2
    endloop
  endfacet
  facet normal 0.123276 1.74694e-07 -0.992372
    outer loop
      vertex -15.233 8.79478 1.47416
      vertex -27.1 17.2628 0
      vertex -11 17.2628 2
    endloop
  endfacet
  facet normal 0.123276 0 -0.992372
    outer loop
      vertex -27.1 17.2628 0
      vertex -15.233 8.79478 1.47416
      vertex -27.1 -17.2628 0
    endloop
  endfacet
  facet normal 0 1 0
    outer loop
      vertex -11 17.2628 2
      vertex -27.1 17.2628 0
      vertex -16.1 17.2628 2
    endloop
  endfacet
  facet normal 0 1 -0
    outer loop
      vertex -15.0998 17.2628 4.17426
      vertex -28.1 17.2628 5
      vertex -14.72 17.2628 5
    endloop
  endfacet
  facet normal 0 1 -0
    outer loop
      vertex -16.1 17.2628 2
      vertex -28.1 17.2628 5
      vertex -15.0998 17.2628 4.17426
    endloop
  endfacet
  facet normal 0 1 -0
    outer loop
      vertex -27.1 17.2628 0
      vertex -28.1 17.2628 5
      vertex -16.1 17.2628 2
    endloop
  endfacet
  facet normal 0 1 0
    outer loop
      vertex -28.1 17.2628 5
      vertex -27.1 17.2628 0
      vertex -28.1 17.2628 0
    endloop
  endfacet
  facet normal 0.499999 -0.866026 0
    outer loop
      vertex -11 11.2387 2
      vertex -15.233 8.79478 2
      vertex -15.233 8.79478 1.47416
    endloop
  endfacet
  facet normal 1 -0 0
    outer loop
      vertex -15.233 -8.79478 2
      vertex -15.233 8.79478 1.47416
      vertex -15.233 8.79478 2
    endloop
  endfacet
  facet normal 1 0 0
    outer loop
      vertex -15.233 8.79478 1.47416
      vertex -15.233 -8.79478 2
      vertex -15.233 -8.79478 1.47416
    endloop
  endfacet
  facet normal 0.499999 0.866026 0
    outer loop
      vertex -15.233 -8.79478 2
      vertex -11 -11.2387 2
      vertex -15.233 -8.79478 1.47416
    endloop
  endfacet
  facet normal 1 -0 0
    outer loop
      vertex -45.2 -7.11864 5
      vertex -45.2 7.11864 3
      vertex -45.2 7.11864 5
    endloop
  endfacet
  facet normal 1 0 0
    outer loop
      vertex -45.2 7.11864 3
      vertex -45.2 -7.11864 5
      vertex -45.2 -7.11864 3
    endloop
  endfacet
  facet normal -1 0 0
    outer loop
      vertex -42 -9.01696 4.5
      vertex -42 9.01696 5
      vertex -42 9.01696 4.5
    endloop
  endfacet
  facet normal -1 -0 0
    outer loop
      vertex -42 9.01696 5
      vertex -42 -9.01696 4.5
      vertex -42 -9.01696 5
    endloop
  endfacet
  facet normal -0 0 1
    outer loop
      vertex -45.2 7.11864 3
      vertex -43.5 -8.12712 3
      vertex -43.5 8.12712 3
    endloop
  endfacet
  facet normal 0 0 1
    outer loop
      vertex -43.5 -8.12712 3
      vertex -45.2 7.11864 3
      vertex -45.2 -7.11864 3
    endloop
  endfacet
  facet normal -0.707107 0 0.707107
    outer loop
      vertex -43.5 -8.12712 3
      vertex -42 9.01696 4.5
      vertex -43.5 8.12712 3
    endloop
  endfacet
  facet normal -0.707107 0 0.707107
    outer loop
      vertex -42 9.01696 4.5
      vertex -43.5 -8.12712 3
      vertex -42 -9.01696 4.5
    endloop
  endfacet
endsolid OpenSCAD_Model
